<svg width="582" height="76" viewBox="0 0 582 76" fill="none" xmlns="http://www.w3.org/2000/svg">
<path d="M44.3442 75.0455L58.2591 26.8786H71.1037L57.7834 75.0455H44.3442Z" fill="#E30000"/>
<path d="M44.3442 75.0455L58.2591 26.8786H71.1037L57.7834 75.0455H44.3442Z" fill="url(#paint0_linear)"/>
<path d="M44.3442 75.0455L58.2591 26.8786H71.1037L57.7834 75.0455H44.3442Z" fill="url(#paint1_linear)"/>
<path fill-rule="evenodd" clip-rule="evenodd" d="M58.2498 26.8785C58.1457 26.8785 58.0542 26.949 58.0253 27.0514L44.3534 75.5044C44.333 75.5766 44.347 75.6545 44.3912 75.7146C44.4353 75.7747 44.5045 75.8101 44.5779 75.8101H57.7824C57.8875 75.8101 57.9796 75.7383 58.0076 75.6346L71.0952 27.1816C71.1147 27.1096 71.1001 27.0324 71.0559 26.9729C71.0117 26.9134 70.9429 26.8785 70.87 26.8785H58.2498ZM57.7824 75.5708H44.5779L58.2498 27.1178H70.87L57.7824 75.5708Z" fill="url(#paint2_linear)"/>
<path d="M0 26.882C6.69375 27.8334 16.5518 75.0455 16.5518 75.0455L29.8176 74.9266C29.8176 74.9266 18.9859 26.4063 13.7526 26.882C12.5356 26.882 1.82557 26.882 0 26.882Z" fill="#E30000"/>
<path d="M0 26.882C6.69375 27.8334 16.5518 75.0455 16.5518 75.0455L29.8176 74.9266C29.8176 74.9266 18.9859 26.4063 13.7526 26.882C12.5356 26.882 1.82557 26.882 0 26.882Z" fill="url(#paint3_linear)"/>
<path d="M0 26.882C6.69375 27.8334 16.5518 75.0455 16.5518 75.0455L29.8176 74.9266C29.8176 74.9266 18.9859 26.4063 13.7526 26.882C12.5356 26.882 1.82557 26.882 0 26.882Z" fill="url(#paint4_linear)"/>
<path fill-rule="evenodd" clip-rule="evenodd" d="M16.5276 75.8101C16.413 75.8111 16.3137 75.7309 16.2908 75.6186L16.5254 75.5708L29.5781 75.4512L29.8121 75.4002C29.8275 75.4706 29.8103 75.5441 29.7654 75.6004C29.7204 75.6567 29.6524 75.6898 29.5803 75.6904L16.5276 75.8101ZM29.5256 75.2124C28.7146 71.5366 18.7096 26.6624 13.7712 27.1213H0.239508C0.454528 27.1526 0.672866 27.2334 0.894077 27.3606C7.44872 31.1287 16.5254 75.5708 16.5254 75.5708C16.2908 75.6186 16.2908 75.6185 16.2907 75.6181L16.2629 75.4829C16.2443 75.3931 16.2167 75.2599 16.1805 75.0861C16.1079 74.7383 16.0005 74.2281 15.8616 73.5782C15.5837 72.2785 15.1793 70.4206 14.6734 68.188C13.6615 63.7225 12.2441 57.7595 10.6211 51.7674C8.99772 45.7737 7.17066 39.758 5.34036 35.1841C4.42475 32.896 3.51222 30.9787 2.62886 29.6074C2.18711 28.9216 1.75771 28.3805 1.34505 27.9987C0.930675 27.6154 0.549899 27.4082 0.205034 27.3581C0.0807754 27.34 -0.00842773 27.2292 0.000632932 27.1041C0.00969361 26.979 0.113941 26.8821 0.239508 26.8821H13.7608C14.1778 26.848 14.582 27.0628 14.9593 27.409C15.3441 27.7621 15.7362 28.2835 16.1335 28.9363C16.9291 30.2439 17.7739 32.1274 18.6371 34.3857C20.3647 38.9055 22.1822 44.971 23.8367 51.044C25.4917 57.1187 26.9855 63.2076 28.0655 67.7774C28.6055 70.0624 29.0421 71.9679 29.3438 73.3022C29.4946 73.9693 29.6116 74.4937 29.691 74.8514C29.7307 75.0302 29.761 75.1673 29.7813 75.2598L29.812 75.3996C29.8121 75.4 29.8121 75.4002 29.5781 75.4512C29.5781 75.4512 29.5603 75.3693 29.5256 75.2124Z" fill="url(#paint5_linear)"/>
<path d="M16.8202 75.0455L30.4346 26.8786H43.5796L30.0825 75.0455H16.8202Z" fill="#E30000"/>
<path d="M16.8202 75.0455L30.4346 26.8786H43.5796L30.0825 75.0455H16.8202Z" fill="url(#paint6_linear)"/>
<path d="M16.8202 75.0455L30.4346 26.8786H43.5796L30.0825 75.0455H16.8202Z" fill="url(#paint7_linear)"/>
<path fill-rule="evenodd" clip-rule="evenodd" d="M30.4438 26.8785C30.335 26.8785 30.2393 26.9493 30.2094 27.0519L16.0651 75.5049C16.044 75.5771 16.0587 75.6548 16.1048 75.7148C16.1509 75.7748 16.223 75.8101 16.2995 75.8101H30.078C30.187 75.8101 30.2828 75.7391 30.3126 75.6361L44.3349 27.1832C44.3558 27.111 44.341 27.0334 44.2949 26.9736C44.2488 26.9137 44.1768 26.8785 44.1003 26.8785H30.4438ZM30.078 75.5708H16.2995L30.4438 27.1178H44.1003L30.078 75.5708Z" fill="url(#paint8_linear)"/>
<path d="M30.5822 26.8785L44.5244 75.8101H58.1061L44.0437 26.8785H30.5822Z" fill="#8B0101"/>
<path d="M30.5822 26.8785L44.5244 75.8101H58.1061L44.0437 26.8785H30.5822Z" fill="url(#paint9_linear)"/>
<path d="M30.5822 26.8785L44.5244 75.8101H58.1061L44.0437 26.8785H30.5822Z" fill="url(#paint10_linear)"/>
<path d="M30.5822 26.8785L44.5244 75.8101H58.1061L44.0437 26.8785H30.5822Z" fill="url(#paint11_linear)"/>
<path fill-rule="evenodd" clip-rule="evenodd" d="M44.144 75.8101C44.0356 75.8101 43.9403 75.7394 43.9105 75.637L29.827 27.1828C29.806 27.1108 29.8207 27.0333 29.8666 26.9735C29.9125 26.9137 29.9843 26.8785 30.0604 26.8785H43.6584C43.7666 26.8785 43.8617 26.9489 43.8917 27.0511L58.0967 75.5053C58.1178 75.5773 58.1032 75.655 58.0574 75.7149C58.0115 75.7748 57.9396 75.8101 57.8633 75.8101H44.144ZM43.6584 27.1172H30.0604L44.144 75.5714H57.8633L43.6584 27.1172Z" fill="url(#paint12_linear)"/>
<path d="M44.0324 26.5367C46.6823 21.0128 91.1169 25.5422 91.1169 25.5422L94.5953 14.0405C94.5953 14.0405 48.7403 9.99122 47.7474 14.6471C47.4187 15.6993 44.5255 24.9585 44.0324 26.5367Z" fill="#8B0101"/>
<path d="M44.0324 26.5367C46.6823 21.0128 91.1169 25.5422 91.1169 25.5422L94.5953 14.0405C94.5953 14.0405 48.7403 9.99122 47.7474 14.6471C47.4187 15.6993 44.5255 24.9585 44.0324 26.5367Z" fill="url(#paint13_linear)"/>
<path d="M44.0324 26.5367C46.6823 21.0128 91.1169 25.5422 91.1169 25.5422L94.5953 14.0405C94.5953 14.0405 48.7403 9.99122 47.7474 14.6471C47.4187 15.6993 44.5255 24.9585 44.0324 26.5367Z" fill="url(#paint14_linear)"/>
<path fill-rule="evenodd" clip-rule="evenodd" d="M91.3458 25.6114C91.3126 25.721 91.2065 25.7917 91.0926 25.7801L91.1169 25.5422L94.5952 14.0406L94.6162 13.8024C94.6879 13.8087 94.753 13.847 94.7933 13.9066C94.8336 13.9663 94.8449 14.0409 94.8241 14.1098L91.3458 25.6114ZM94.3517 14.0194C90.7634 13.7108 48.6978 10.1899 47.7474 14.6471L44.0323 26.5368C44.1233 26.347 44.2637 26.1692 44.4498 26.0025C49.6824 21.3186 91.1169 25.5422 91.1169 25.5422C91.0926 25.7801 91.0924 25.7801 91.0921 25.7801L90.9655 25.7673C90.8816 25.759 90.7568 25.7466 90.594 25.7307C90.2682 25.6989 89.79 25.653 89.1803 25.5965C87.9609 25.4835 86.2158 25.3282 84.1134 25.1592C79.9081 24.821 74.2746 24.4277 68.5591 24.207C62.8418 23.9861 57.0501 23.9383 52.5257 24.2894C50.2623 24.465 48.3268 24.7398 46.8799 25.1386C46.1563 25.3381 45.564 25.5661 45.1168 25.8227C44.6676 26.0805 44.3844 26.3557 44.2479 26.6402C44.1937 26.7533 44.0614 26.8052 43.9447 26.7593C43.828 26.7134 43.7667 26.5851 43.8041 26.4655L47.516 14.5857C47.6025 14.2028 47.9076 13.9034 48.3173 13.6661C48.7356 13.4238 49.3037 13.2221 49.9878 13.0522C51.358 12.7121 53.2478 12.4873 55.4714 12.3495C59.9221 12.0736 65.7566 12.1437 71.5525 12.3589C77.3501 12.5742 83.1159 12.9351 87.4318 13.2421C89.5899 13.3956 91.3858 13.5356 92.6422 13.6373C93.2704 13.6881 93.7638 13.7294 94.1002 13.7579C94.2684 13.7722 94.3973 13.7833 94.4843 13.7908L94.6157 13.8023C94.616 13.8023 94.6162 13.8024 94.5952 14.0406C94.5952 14.0406 94.5117 14.0332 94.3517 14.0194Z" fill="url(#paint15_linear)"/>
<path d="M88.75 49.1566C92.5834 49.1566 95.6501 50.2233 97.9501 52.3566C100.283 54.4566 101.45 57.8066 101.45 62.4066C101.45 67.0066 100.283 70.3733 97.9501 72.5066C95.6501 74.6066 92.5834 75.6566 88.75 75.6566C84.9167 75.6566 81.8334 74.6066 79.5 72.5066C77.2 70.3733 76.05 67.0066 76.05 62.4066C76.05 57.8066 77.2 54.4566 79.5 52.3566C81.8334 50.2233 84.9167 49.1566 88.75 49.1566ZM88.75 52.7566C86.75 52.7566 85.15 53.0399 83.95 53.6066C82.7834 54.1733 81.9 55.1566 81.3 56.5566C80.7334 57.9566 80.45 59.9066 80.45 62.4066C80.45 64.9066 80.7334 66.8566 81.3 68.2566C81.9 69.6566 82.7834 70.64 83.95 71.2066C85.15 71.7733 86.75 72.0566 88.75 72.0566C90.75 72.0566 92.3334 71.7733 93.5 71.2066C94.7 70.64 95.5834 69.6566 96.1501 68.2566C96.7501 66.8566 97.0501 64.9066 97.0501 62.4066C97.0501 59.9066 96.7501 57.9566 96.1501 56.5566C95.5834 55.1566 94.7 54.1733 93.5 53.6066C92.3334 53.0399 90.75 52.7566 88.75 52.7566Z" fill="black"/>
<path d="M167.592 72.2066V74.9566H159.992V58.4066C159.992 56.4399 159.559 55.0233 158.692 54.1566C157.826 53.2566 156.542 52.8066 154.842 52.8066C153.676 52.8066 152.592 52.9566 151.592 53.2566C150.626 53.5233 149.026 54.0566 146.792 54.8566V70.7066L150.192 72.2066V74.9566H142.592V58.4066C142.592 56.4399 142.159 55.0233 141.292 54.1566C140.426 53.2566 139.142 52.8066 137.442 52.8066C136.309 52.8066 135.242 52.9566 134.242 53.2566C133.276 53.5233 131.659 54.0566 129.392 54.8566V70.7066L132.792 72.2066V74.9566H121.792V72.2066L125.192 70.7066V54.1066L121.792 52.7066V49.8566H127.342L128.642 51.9066C130.609 50.9066 132.376 50.2066 133.942 49.8066C135.509 49.3733 137.126 49.1566 138.792 49.1566C140.459 49.1566 141.842 49.3899 142.942 49.8566C144.076 50.3233 145.009 51.0566 145.742 52.0566C147.742 51.0233 149.542 50.2899 151.142 49.8566C152.776 49.3899 154.459 49.1566 156.192 49.1566C158.192 49.1566 159.776 49.4899 160.942 50.1566C162.109 50.7899 162.942 51.8233 163.442 53.2566C163.942 54.6566 164.192 56.5566 164.192 58.9566V70.7066L167.592 72.2066Z" fill="black"/>
<path d="M199.946 49.1566C203.346 49.1566 206.096 50.2233 208.196 52.3566C210.329 54.4566 211.396 57.5899 211.396 61.7566V63.7566H191.796C191.962 65.9899 192.362 67.7066 192.996 68.9066C193.662 70.0733 194.612 70.89 195.846 71.3566C197.112 71.8233 198.846 72.0566 201.046 72.0566C204.212 72.0566 207.346 71.6733 210.446 70.9066V74.5066C209.146 74.8399 207.629 75.1066 205.896 75.3066C204.162 75.54 202.512 75.6566 200.946 75.6566C196.512 75.6566 193.146 74.6566 190.846 72.6566C188.546 70.6566 187.396 67.24 187.396 62.4066C187.396 57.9066 188.529 54.5733 190.796 52.4066C193.062 50.2399 196.112 49.1566 199.946 49.1566ZM199.696 52.7566C197.096 52.7566 195.196 53.3399 193.996 54.5066C192.796 55.6733 192.079 57.5733 191.846 60.2066H206.946C206.746 57.74 206.062 55.89 204.896 54.6566C203.729 53.39 201.996 52.7566 199.696 52.7566Z" fill="black"/>
<path d="M260.334 72.2066V74.9566H252.734V58.4066C252.734 56.4399 252.25 55.0233 251.284 54.1566C250.35 53.2566 248.967 52.8066 247.134 52.8066C245.967 52.8066 244.817 52.9566 243.684 53.2566C242.584 53.5566 240.967 54.0899 238.834 54.8566V70.7066L242.734 72.2066V74.9566H231.234V72.2066L234.634 70.7066V54.1066L231.234 52.7066V49.8566H236.784L238.084 51.9066C239.95 50.94 241.717 50.2399 243.384 49.8066C245.05 49.3733 246.75 49.1566 248.484 49.1566C250.584 49.1566 252.25 49.4899 253.484 50.1566C254.717 50.7899 255.6 51.8233 256.134 53.2566C256.667 54.6566 256.934 56.5566 256.934 58.9566V70.7066L260.334 72.2066Z" fill="black"/>
<path d="M315.502 38.9066C316.535 38.9066 317.352 39.2066 317.952 39.8066C318.585 40.4066 318.902 41.2566 318.902 42.3566C318.902 43.4566 318.585 44.3066 317.952 44.9066C317.352 45.5066 316.535 45.8066 315.502 45.8066C314.468 45.8066 313.635 45.5066 313.002 44.9066C312.402 44.3066 312.102 43.4566 312.102 42.3566C312.102 41.2566 312.402 40.4066 313.002 39.8066C313.635 39.2066 314.468 38.9066 315.502 38.9066ZM318.002 70.7066L321.402 72.2066V74.9566H310.402V72.2066L313.802 70.7066V54.1066L310.402 52.7066V49.8566H318.002V70.7066Z" fill="black"/>
<path d="M370.541 72.2066V74.9566H362.941V58.4066C362.941 56.4399 362.457 55.0233 361.491 54.1566C360.557 53.2566 359.174 52.8066 357.341 52.8066C356.174 52.8066 355.024 52.9566 353.891 53.2566C352.791 53.5566 351.174 54.0899 349.041 54.8566V70.7066L352.941 72.2066V74.9566H341.441V72.2066L344.841 70.7066V54.1066L341.441 52.7066V49.8566H346.991L348.291 51.9066C350.157 50.94 351.924 50.2399 353.591 49.8066C355.257 49.3733 356.957 49.1566 358.691 49.1566C360.791 49.1566 362.457 49.4899 363.691 50.1566C364.924 50.7899 365.807 51.8233 366.341 53.2566C366.874 54.6566 367.141 56.5566 367.141 58.9566V70.7066L370.541 72.2066Z" fill="black"/>
<path d="M450.12 50.5566H447.37L445.92 44.5566H436.87V70.7066L441.07 72.2066V74.9566H428.37V72.2066L432.57 70.7066V44.5566H423.52L422.07 50.5566H419.32V40.9566H450.12V50.5566Z" fill="black"/>
<path d="M479.719 49.1566C483.119 49.1566 485.869 50.2233 487.969 52.3566C490.103 54.4566 491.169 57.5899 491.169 61.7566V63.7566H471.569C471.736 65.9899 472.136 67.7066 472.769 68.9066C473.436 70.0733 474.386 70.89 475.619 71.3566C476.886 71.8233 478.619 72.0566 480.819 72.0566C483.986 72.0566 487.119 71.6733 490.219 70.9066V74.5066C488.919 74.8399 487.403 75.1066 485.669 75.3066C483.936 75.54 482.286 75.6566 480.719 75.6566C476.286 75.6566 472.919 74.6566 470.619 72.6566C468.319 70.6566 467.169 67.24 467.169 62.4066C467.169 57.9066 468.303 54.5733 470.569 52.4066C472.836 50.2399 475.886 49.1566 479.719 49.1566ZM479.469 52.7566C476.869 52.7566 474.969 53.3399 473.769 54.5066C472.569 55.6733 471.853 57.5733 471.619 60.2066H486.719C486.519 57.74 485.836 55.89 484.669 54.6566C483.503 53.39 481.769 52.7566 479.469 52.7566Z" fill="black"/>
<path d="M524.107 49.1566C526.874 49.1566 528.824 49.5066 529.957 50.2066C531.09 50.9066 531.657 52.0233 531.657 53.5566C531.657 56.2566 530.057 57.6066 526.857 57.6066L524.657 52.6066C522.024 52.6066 520.04 52.9066 518.707 53.5066C517.374 54.1066 516.44 55.09 515.907 56.4566C515.407 57.79 515.157 59.7399 515.157 62.3066C515.157 64.9399 515.44 66.9566 516.007 68.3566C516.607 69.7566 517.507 70.7233 518.707 71.2566C519.94 71.7899 521.607 72.0566 523.707 72.0566C525.14 72.0566 526.44 71.9733 527.607 71.8066C528.774 71.6066 529.99 71.2733 531.257 70.8066V74.4066C530.224 74.8066 529.007 75.1066 527.607 75.3066C526.24 75.54 524.874 75.6566 523.507 75.6566C519.374 75.6566 516.207 74.6733 514.007 72.7066C511.84 70.7066 510.757 67.29 510.757 62.4566C510.757 57.7566 511.857 54.3733 514.057 52.3066C516.29 50.2066 519.64 49.1566 524.107 49.1566Z" fill="black"/>
<path d="M581.058 72.2066V74.9566H573.458V58.4066C573.458 56.4399 572.975 55.0233 572.008 54.1566C571.075 53.2566 569.692 52.8066 567.858 52.8066C566.692 52.8066 565.542 52.9566 564.408 53.2566C563.308 53.5566 561.692 54.0899 559.558 54.8566V70.7066L562.958 72.2066V74.9566H551.958V72.2066L555.358 70.7066V43.7066L551.958 42.3066V39.4566H559.558V51.6066C561.258 50.7399 562.875 50.1233 564.408 49.7566C565.975 49.3566 567.575 49.1566 569.208 49.1566C571.308 49.1566 572.975 49.4899 574.208 50.1566C575.442 50.7899 576.325 51.8233 576.858 53.2566C577.392 54.6566 577.658 56.5566 577.658 58.9566V70.7066L581.058 72.2066Z" fill="black"/>
<defs>
<linearGradient id="paint0_linear" x1="57.7239" y1="75.1645" x2="57.7239" y2="26.9975" gradientUnits="userSpaceOnUse">
<stop stop-color="#E30000"/>
<stop offset="1" stop-color="white" stop-opacity="0"/>
</linearGradient>
<linearGradient id="paint1_linear" x1="57.7239" y1="75.1645" x2="57.7239" y2="26.9975" gradientUnits="userSpaceOnUse">
<stop stop-color="#E30000"/>
<stop offset="1" stop-color="white" stop-opacity="0"/>
</linearGradient>
<linearGradient id="paint2_linear" x1="57.7239" y1="75.5708" x2="57.7239" y2="27.2374" gradientUnits="userSpaceOnUse">
<stop stop-color="#E61919"/>
<stop offset="0.265625" stop-color="#FF5353"/>
<stop offset="0.59375" stop-color="white"/>
<stop offset="1" stop-color="#FFA1A1"/>
</linearGradient>
<linearGradient id="paint3_linear" x1="16.1259" y1="26.882" x2="16.1259" y2="75.0455" gradientUnits="userSpaceOnUse">
<stop offset="0.265625" stop-color="white" stop-opacity="0"/>
<stop offset="0.630208" stop-color="#C70101"/>
</linearGradient>
<linearGradient id="paint4_linear" x1="16.1259" y1="26.882" x2="16.1259" y2="75.0455" gradientUnits="userSpaceOnUse">
<stop stop-color="#E30000"/>
<stop offset="1" stop-color="white" stop-opacity="0"/>
</linearGradient>
<linearGradient id="paint5_linear" x1="14.9088" y1="27.1178" x2="14.9088" y2="75.5708" gradientUnits="userSpaceOnUse">
<stop stop-color="#FFCECE"/>
<stop offset="0.270833" stop-color="#FFA1A1"/>
<stop offset="0.473958" stop-color="white"/>
<stop offset="0.640625" stop-color="#FFCECE"/>
<stop offset="0.854167" stop-color="#FFA1A1"/>
</linearGradient>
<linearGradient id="paint6_linear" x1="30.0239" y1="75.0455" x2="30.0239" y2="26.8786" gradientUnits="userSpaceOnUse">
<stop offset="0.00520833" stop-color="white" stop-opacity="0"/>
<stop offset="0.515625" stop-color="#E30000"/>
</linearGradient>
<linearGradient id="paint7_linear" x1="30.0239" y1="75.0455" x2="30.0239" y2="26.8786" gradientUnits="userSpaceOnUse">
<stop stop-color="white" stop-opacity="0"/>
<stop offset="0.739583" stop-color="#8B0101"/>
</linearGradient>
<linearGradient id="paint8_linear" x1="30.017" y1="75.5708" x2="30.017" y2="27.1178" gradientUnits="userSpaceOnUse">
<stop offset="0.0104167" stop-color="#FFA1A1"/>
<stop offset="0.1875" stop-color="#FFCECE"/>
<stop offset="0.432292" stop-color="#FFB6B6"/>
<stop offset="0.640625" stop-color="#FFA1A1"/>
<stop offset="0.802083" stop-color="white"/>
<stop offset="0.932292" stop-color="#FF0606"/>
</linearGradient>
<linearGradient id="paint9_linear" x1="44.1038" y1="26.9991" x2="44.1038" y2="75.8101" gradientUnits="userSpaceOnUse">
<stop stop-color="#8B0101"/>
<stop offset="0.71875" stop-color="white" stop-opacity="0"/>
</linearGradient>
<linearGradient id="paint10_linear" x1="44.1038" y1="26.9991" x2="44.1038" y2="75.8101" gradientUnits="userSpaceOnUse">
<stop offset="0.0572917" stop-color="#8B0101"/>
<stop offset="1" stop-color="white" stop-opacity="0"/>
</linearGradient>
<linearGradient id="paint11_linear" x1="44.1038" y1="26.9991" x2="44.1038" y2="75.8101" gradientUnits="userSpaceOnUse">
<stop offset="0.161458" stop-color="white" stop-opacity="0"/>
<stop offset="0.869792" stop-color="#8B0101"/>
</linearGradient>
<linearGradient id="paint12_linear" x1="43.9619" y1="27.3559" x2="43.9619" y2="75.5714" gradientUnits="userSpaceOnUse">
<stop stop-color="#FF2727"/>
<stop offset="0.234375" stop-color="white"/>
<stop offset="0.322917" stop-color="#FFCECE"/>
<stop offset="0.645833" stop-color="#FF7373"/>
<stop offset="0.973958" stop-color="#9B0000"/>
</linearGradient>
<linearGradient id="paint13_linear" x1="48.3885" y1="12.5953" x2="91.0018" y2="25.9104" gradientUnits="userSpaceOnUse">
<stop offset="0.265625" stop-color="white" stop-opacity="0"/>
<stop offset="0.630208" stop-color="#8B0101"/>
</linearGradient>
<linearGradient id="paint14_linear" x1="48.3885" y1="12.5953" x2="91.0018" y2="25.9104" gradientUnits="userSpaceOnUse">
<stop stop-color="#8B0101"/>
<stop offset="1" stop-color="white" stop-opacity="0"/>
</linearGradient>
<linearGradient id="paint15_linear" x1="48.0566" y1="13.6466" x2="90.673" y2="26.9627" gradientUnits="userSpaceOnUse">
<stop stop-color="#FF5151"/>
<stop offset="0.177083" stop-color="#FFA1A1"/>
<stop offset="0.442708" stop-color="white"/>
<stop offset="0.666667" stop-color="#FF8F8F"/>
<stop offset="0.932292" stop-color="#FD3B3B"/>
</linearGradient>
</defs>
</svg>
