<svg width="572" height="402" viewBox="0 0 572 402" fill="none" xmlns="http://www.w3.org/2000/svg">
<path d="M307 314.204L365.5 111.704H419.5L363.5 314.204H307Z" fill="#E30000"/>
<path d="M307 314.204L365.5 111.704H419.5L363.5 314.204H307Z" fill="url(#paint0_linear)"/>
<path d="M307 314.204L365.5 111.704H419.5L363.5 314.204H307Z" fill="url(#paint1_linear)"/>
<path fill-rule="evenodd" clip-rule="evenodd" d="M365.5 110.704C365.055 110.704 364.663 110.998 364.539 111.426L306.039 313.926C305.952 314.228 306.012 314.553 306.201 314.805C306.39 315.056 306.686 315.204 307 315.204H363.5C363.95 315.204 364.344 314.904 364.464 314.47L420.464 111.97C420.547 111.669 420.485 111.347 420.296 111.098C420.107 110.85 419.812 110.704 419.5 110.704H365.5ZM363.5 314.204H307L365.5 111.704H419.5L363.5 314.204Z" fill="url(#paint2_linear)"/>
<path d="M123 111.704C150.5 115.704 191 314.204 191 314.204L245.5 313.704C245.5 313.704 201 109.704 179.5 111.704C174.5 111.704 130.5 111.704 123 111.704Z" fill="#E30000"/>
<path d="M123 111.704C150.5 115.704 191 314.204 191 314.204L245.5 313.704C245.5 313.704 201 109.704 179.5 111.704C174.5 111.704 130.5 111.704 123 111.704Z" fill="url(#paint3_linear)"/>
<path d="M123 111.704C150.5 115.704 191 314.204 191 314.204L245.5 313.704C245.5 313.704 201 109.704 179.5 111.704C174.5 111.704 130.5 111.704 123 111.704Z" fill="url(#paint4_linear)"/>
<path fill-rule="evenodd" clip-rule="evenodd" d="M191.009 315.204C190.531 315.208 190.116 314.873 190.02 314.404L191 314.204L245.5 313.704L246.477 313.49C246.541 313.785 246.469 314.092 246.282 314.327C246.094 314.563 245.81 314.701 245.509 314.704L191.009 315.204ZM245.281 312.706C241.894 297.342 200.12 109.785 179.5 111.704H123C123.898 111.834 124.809 112.172 125.733 112.704C153.101 128.453 191 314.204 191 314.204C190.02 314.404 190.02 314.403 190.02 314.401L189.904 313.836C189.826 313.461 189.711 312.904 189.56 312.177C189.257 310.724 188.808 308.591 188.228 305.875C187.068 300.443 185.379 292.678 183.267 283.346C179.042 264.682 173.124 239.759 166.347 214.715C159.569 189.663 151.94 164.52 144.298 145.403C140.475 135.84 136.665 127.826 132.976 122.094C131.132 119.228 129.339 116.966 127.616 115.371C125.886 113.768 124.296 112.903 122.856 112.693C122.337 112.618 121.965 112.154 122.003 111.631C122.04 111.108 122.476 110.704 123 110.704H179.457C181.198 110.561 182.886 111.459 184.461 112.906C186.067 114.382 187.705 116.561 189.363 119.29C192.685 124.755 196.213 132.627 199.817 142.066C207.031 160.957 214.619 186.308 221.527 211.691C228.438 237.081 234.675 262.53 239.184 281.63C241.439 291.181 243.262 299.145 244.521 304.722C245.151 307.51 245.64 309.702 245.971 311.197C246.137 311.944 246.263 312.517 246.348 312.904L246.477 313.488C246.477 313.49 246.477 313.49 245.5 313.704C245.5 313.704 245.425 313.362 245.281 312.706Z" fill="url(#paint5_linear)"/>
<path d="M191 314.204L249 111.704H305L247.5 314.204H191Z" fill="#E30000"/>
<path d="M191 314.204L249 111.704H305L247.5 314.204H191Z" fill="url(#paint6_linear)"/>
<path d="M191 314.204L249 111.704H305L247.5 314.204H191Z" fill="url(#paint7_linear)"/>
<path fill-rule="evenodd" clip-rule="evenodd" d="M249 110.704C248.554 110.704 248.162 110.999 248.039 111.428L190.039 313.928C189.952 314.23 190.013 314.555 190.201 314.806C190.39 315.056 190.686 315.204 191 315.204H247.5C247.947 315.204 248.34 314.907 248.462 314.477L305.962 111.977C306.048 111.675 305.987 111.351 305.798 111.101C305.609 110.851 305.314 110.704 305 110.704H249ZM247.5 314.204H191L249 111.704H305L247.5 314.204Z" fill="url(#paint8_linear)"/>
<path d="M249 111.704L307 314.704H363.5L305 111.704H249Z" fill="#8B0101"/>
<path d="M249 111.704L307 314.704H363.5L305 111.704H249Z" fill="url(#paint9_linear)"/>
<path d="M249 111.704L307 314.704H363.5L305 111.704H249Z" fill="url(#paint10_linear)"/>
<path d="M249 111.704L307 314.704H363.5L305 111.704H249Z" fill="url(#paint11_linear)"/>
<path fill-rule="evenodd" clip-rule="evenodd" d="M307 315.704C306.554 315.704 306.161 315.408 306.039 314.978L248.039 111.978C247.952 111.677 248.013 111.352 248.202 111.101C248.391 110.851 248.686 110.704 249 110.704H305C305.446 110.704 305.838 110.998 305.961 111.427L364.461 314.427C364.548 314.729 364.488 315.054 364.299 315.305C364.11 315.556 363.814 315.704 363.5 315.704H307ZM305 111.704H249L307 314.704H363.5L305 111.704Z" fill="url(#paint12_linear)"/>
<path d="M306.127 109.8C317.208 86.7007 503.017 105.641 503.017 105.641L517.563 57.5453C517.563 57.5453 325.814 40.6127 321.662 60.0818C320.287 64.4817 308.189 103.2 306.127 109.8Z" fill="#8B0101"/>
<path d="M306.127 109.8C317.208 86.7007 503.017 105.641 503.017 105.641L517.563 57.5453C517.563 57.5453 325.814 40.6127 321.662 60.0818C320.287 64.4817 308.189 103.2 306.127 109.8Z" fill="url(#paint13_linear)"/>
<path d="M306.127 109.8C317.208 86.7007 503.017 105.641 503.017 105.641L517.563 57.5453C517.563 57.5453 325.814 40.6127 321.662 60.0818C320.287 64.4817 308.189 103.2 306.127 109.8Z" fill="url(#paint14_linear)"/>
<path fill-rule="evenodd" clip-rule="evenodd" d="M503.975 105.93C503.836 106.389 503.392 106.684 502.916 106.636L503.017 105.641L517.563 57.5453L517.651 56.5492C517.95 56.5756 518.222 56.7358 518.391 56.9852C518.56 57.2346 518.607 57.5466 518.52 57.8348L503.975 105.93ZM516.545 57.4569C501.54 56.1665 325.637 41.4434 321.662 60.0818L306.127 109.8C306.508 109.006 307.095 108.263 307.873 107.566C329.754 87.9795 503.017 105.641 503.017 105.641C502.916 106.636 502.915 106.636 502.914 106.636L502.385 106.582C502.034 106.547 501.512 106.496 500.831 106.429C499.469 106.296 497.469 106.104 494.92 105.868C489.821 105.395 482.523 104.746 473.731 104.039C456.147 102.625 432.589 100.981 408.689 100.057C384.782 99.1341 360.563 98.9339 341.644 100.402C332.179 101.137 324.085 102.285 318.035 103.953C315.009 104.787 312.532 105.741 310.662 106.814C308.784 107.892 307.599 109.043 307.029 110.232C306.802 110.705 306.249 110.922 305.761 110.73C305.273 110.538 305.016 110.002 305.173 109.502L320.695 59.8248C321.056 58.2236 322.332 56.9716 324.045 55.9795C325.795 54.9664 328.17 54.1226 331.031 53.4125C336.76 51.9901 344.663 51.0501 353.961 50.4738C372.572 49.3203 396.97 49.6132 421.206 50.5133C445.45 51.4136 469.56 52.9226 487.608 54.2063C496.632 54.8482 504.142 55.4338 509.396 55.859C512.023 56.0716 514.086 56.2441 515.493 56.3635C516.196 56.4231 516.735 56.4695 517.099 56.501L517.648 56.549C517.65 56.5491 517.651 56.5492 517.563 57.5453C517.563 57.5453 517.213 57.5145 516.545 57.4569Z" fill="url(#paint15_linear)"/>
<path d="M50.45 366.704V369.554L47 371.004L38.1 400.704H33.05L25.45 374.054L17.7 400.704H12.6L3.60002 371.004L0.150024 369.554V366.704H11.8V369.554L8.10002 371.004L15.5 396.204L23.05 369.454H28.3L35.9 396.154L43.25 371.004L39.55 369.554V366.704H50.45Z" fill="white"/>
<path d="M78.8223 374.904C82.6556 374.904 85.7223 375.97 88.0223 378.104C90.3556 380.204 91.5223 383.554 91.5223 388.154C91.5223 392.754 90.3556 396.12 88.0223 398.254C85.7223 400.354 82.6556 401.404 78.8223 401.404C74.989 401.404 71.9056 400.354 69.5723 398.254C67.2723 396.12 66.1223 392.754 66.1223 388.154C66.1223 383.554 67.2723 380.204 69.5723 378.104C71.9056 375.97 74.989 374.904 78.8223 374.904ZM78.8223 378.504C76.8223 378.504 75.2223 378.787 74.0223 379.354C72.8556 379.92 71.9723 380.904 71.3723 382.304C70.8056 383.704 70.5223 385.654 70.5223 388.154C70.5223 390.654 70.8056 392.604 71.3723 394.004C71.9723 395.404 72.8556 396.387 74.0223 396.954C75.2223 397.52 76.8223 397.804 78.8223 397.804C80.8223 397.804 82.4056 397.52 83.5723 396.954C84.7723 396.387 85.6556 395.404 86.2223 394.004C86.8223 392.604 87.1223 390.654 87.1223 388.154C87.1223 385.654 86.8223 383.704 86.2223 382.304C85.6556 380.904 84.7723 379.92 83.5723 379.354C82.4056 378.787 80.8223 378.504 78.8223 378.504Z" fill="white"/>
<path d="M157.664 397.954V400.704H150.064V384.154C150.064 382.187 149.631 380.77 148.764 379.904C147.898 379.004 146.614 378.554 144.914 378.554C143.748 378.554 142.664 378.704 141.664 379.004C140.698 379.27 139.098 379.804 136.864 380.604V396.454L140.264 397.954V400.704H132.664V384.154C132.664 382.187 132.231 380.77 131.364 379.904C130.498 379.004 129.214 378.554 127.514 378.554C126.381 378.554 125.314 378.704 124.314 379.004C123.348 379.27 121.731 379.804 119.464 380.604V396.454L122.864 397.954V400.704H111.864V397.954L115.264 396.454V379.854L111.864 378.454V375.604H117.414L118.714 377.654C120.681 376.654 122.448 375.954 124.014 375.554C125.581 375.12 127.198 374.904 128.864 374.904C130.531 374.904 131.914 375.137 133.014 375.604C134.148 376.07 135.081 376.804 135.814 377.804C137.814 376.77 139.614 376.037 141.214 375.604C142.848 375.137 144.531 374.904 146.264 374.904C148.264 374.904 149.848 375.237 151.014 375.904C152.181 376.537 153.014 377.57 153.514 379.004C154.014 380.404 154.264 382.304 154.264 384.704V396.454L157.664 397.954Z" fill="white"/>
<path d="M190.018 374.904C193.418 374.904 196.168 375.97 198.268 378.104C200.401 380.204 201.468 383.337 201.468 387.504V389.504H181.868C182.035 391.737 182.435 393.454 183.068 394.654C183.735 395.82 184.685 396.637 185.918 397.104C187.185 397.57 188.918 397.804 191.118 397.804C194.285 397.804 197.418 397.42 200.518 396.654V400.254C199.218 400.587 197.701 400.854 195.968 401.054C194.235 401.287 192.585 401.404 191.018 401.404C186.585 401.404 183.218 400.404 180.918 398.404C178.618 396.404 177.468 392.987 177.468 388.154C177.468 383.654 178.601 380.32 180.868 378.154C183.135 375.987 186.185 374.904 190.018 374.904ZM189.768 378.504C187.168 378.504 185.268 379.087 184.068 380.254C182.868 381.42 182.151 383.32 181.918 385.954H197.018C196.818 383.487 196.135 381.637 194.968 380.404C193.801 379.137 192.068 378.504 189.768 378.504Z" fill="white"/>
<path d="M250.406 397.954V400.704H242.806V384.154C242.806 382.187 242.323 380.77 241.356 379.904C240.423 379.004 239.039 378.554 237.206 378.554C236.039 378.554 234.889 378.704 233.756 379.004C232.656 379.304 231.039 379.837 228.906 380.604V396.454L232.806 397.954V400.704H221.306V397.954L224.706 396.454V379.854L221.306 378.454V375.604H226.856L228.156 377.654C230.023 376.687 231.789 375.987 233.456 375.554C235.123 375.12 236.823 374.904 238.556 374.904C240.656 374.904 242.323 375.237 243.556 375.904C244.789 376.537 245.673 377.57 246.206 379.004C246.739 380.404 247.006 382.304 247.006 384.704V396.454L250.406 397.954Z" fill="white"/>
<path d="M305.574 364.654C306.607 364.654 307.424 364.954 308.024 365.554C308.657 366.154 308.974 367.004 308.974 368.104C308.974 369.204 308.657 370.054 308.024 370.654C307.424 371.254 306.607 371.554 305.574 371.554C304.541 371.554 303.707 371.254 303.074 370.654C302.474 370.054 302.174 369.204 302.174 368.104C302.174 367.004 302.474 366.154 303.074 365.554C303.707 364.954 304.541 364.654 305.574 364.654ZM308.074 396.454L311.474 397.954V400.704H300.474V397.954L303.874 396.454V379.854L300.474 378.454V375.604H308.074V396.454Z" fill="white"/>
<path d="M360.613 397.954V400.704H353.013V384.154C353.013 382.187 352.53 380.77 351.563 379.904C350.63 379.004 349.246 378.554 347.413 378.554C346.246 378.554 345.096 378.704 343.963 379.004C342.863 379.304 341.246 379.837 339.113 380.604V396.454L343.013 397.954V400.704H331.513V397.954L334.913 396.454V379.854L331.513 378.454V375.604H337.063L338.363 377.654C340.23 376.687 341.996 375.987 343.663 375.554C345.33 375.12 347.03 374.904 348.763 374.904C350.863 374.904 352.53 375.237 353.763 375.904C354.996 376.537 355.88 377.57 356.413 379.004C356.946 380.404 357.213 382.304 357.213 384.704V396.454L360.613 397.954Z" fill="white"/>
<path d="M440.193 376.304H437.443L435.993 370.304H426.943V396.454L431.143 397.954V400.704H418.443V397.954L422.643 396.454V370.304H413.593L412.143 376.304H409.393V366.704H440.193V376.304Z" fill="white"/>
<path d="M469.791 374.904C473.191 374.904 475.941 375.97 478.041 378.104C480.175 380.204 481.241 383.337 481.241 387.504V389.504H461.641C461.808 391.737 462.208 393.454 462.841 394.654C463.508 395.82 464.458 396.637 465.691 397.104C466.958 397.57 468.691 397.804 470.891 397.804C474.058 397.804 477.191 397.42 480.291 396.654V400.254C478.991 400.587 477.475 400.854 475.741 401.054C474.008 401.287 472.358 401.404 470.791 401.404C466.358 401.404 462.991 400.404 460.691 398.404C458.391 396.404 457.241 392.987 457.241 388.154C457.241 383.654 458.375 380.32 460.641 378.154C462.908 375.987 465.958 374.904 469.791 374.904ZM469.541 378.504C466.941 378.504 465.041 379.087 463.841 380.254C462.641 381.42 461.925 383.32 461.691 385.954H476.791C476.591 383.487 475.908 381.637 474.741 380.404C473.575 379.137 471.841 378.504 469.541 378.504Z" fill="white"/>
<path d="M514.179 374.904C516.946 374.904 518.896 375.254 520.029 375.954C521.163 376.654 521.729 377.77 521.729 379.304C521.729 382.004 520.129 383.354 516.929 383.354L514.729 378.354C512.096 378.354 510.113 378.654 508.779 379.254C507.446 379.854 506.513 380.837 505.979 382.204C505.479 383.537 505.229 385.487 505.229 388.054C505.229 390.687 505.513 392.704 506.079 394.104C506.679 395.504 507.579 396.47 508.779 397.004C510.013 397.537 511.679 397.804 513.779 397.804C515.213 397.804 516.513 397.72 517.679 397.554C518.846 397.354 520.063 397.02 521.329 396.554V400.154C520.296 400.554 519.079 400.854 517.679 401.054C516.313 401.287 514.946 401.404 513.579 401.404C509.446 401.404 506.279 400.42 504.079 398.454C501.913 396.454 500.829 393.037 500.829 388.204C500.829 383.504 501.929 380.12 504.129 378.054C506.363 375.954 509.713 374.904 514.179 374.904Z" fill="white"/>
<path d="M571.13 397.954V400.704H563.53V384.154C563.53 382.187 563.047 380.77 562.08 379.904C561.147 379.004 559.764 378.554 557.93 378.554C556.764 378.554 555.614 378.704 554.48 379.004C553.38 379.304 551.764 379.837 549.63 380.604V396.454L553.03 397.954V400.704H542.03V397.954L545.43 396.454V369.454L542.03 368.054V365.204H549.63V377.354C551.33 376.487 552.947 375.87 554.48 375.504C556.047 375.104 557.647 374.904 559.28 374.904C561.38 374.904 563.047 375.237 564.28 375.904C565.514 376.537 566.397 377.57 566.93 379.004C567.464 380.404 567.73 382.304 567.73 384.704V396.454L571.13 397.954Z" fill="white"/>
<defs>
<linearGradient id="paint0_linear" x1="363.25" y1="314.704" x2="363.25" y2="112.204" gradientUnits="userSpaceOnUse">
<stop stop-color="#E30000"/>
<stop offset="1" stop-color="white" stop-opacity="0"/>
</linearGradient>
<linearGradient id="paint1_linear" x1="363.25" y1="314.704" x2="363.25" y2="112.204" gradientUnits="userSpaceOnUse">
<stop stop-color="#E30000"/>
<stop offset="1" stop-color="white" stop-opacity="0"/>
</linearGradient>
<linearGradient id="paint2_linear" x1="363.25" y1="314.204" x2="363.25" y2="112.204" gradientUnits="userSpaceOnUse">
<stop stop-color="#E61919"/>
<stop offset="0.265625" stop-color="#FF5353"/>
<stop offset="0.59375" stop-color="white"/>
<stop offset="1" stop-color="#FFA1A1"/>
</linearGradient>
<linearGradient id="paint3_linear" x1="189.25" y1="111.704" x2="189.25" y2="314.204" gradientUnits="userSpaceOnUse">
<stop offset="0.265625" stop-color="white" stop-opacity="0"/>
<stop offset="0.630208" stop-color="#C70101"/>
</linearGradient>
<linearGradient id="paint4_linear" x1="189.25" y1="111.704" x2="189.25" y2="314.204" gradientUnits="userSpaceOnUse">
<stop stop-color="#E30000"/>
<stop offset="1" stop-color="white" stop-opacity="0"/>
</linearGradient>
<linearGradient id="paint5_linear" x1="184.25" y1="111.689" x2="184.25" y2="314.204" gradientUnits="userSpaceOnUse">
<stop stop-color="#FFCECE"/>
<stop offset="0.270833" stop-color="#FFA1A1"/>
<stop offset="0.473958" stop-color="white"/>
<stop offset="0.640625" stop-color="#FFCECE"/>
<stop offset="0.854167" stop-color="#FFA1A1"/>
</linearGradient>
<linearGradient id="paint6_linear" x1="247.25" y1="314.204" x2="247.25" y2="111.704" gradientUnits="userSpaceOnUse">
<stop offset="0.00520833" stop-color="white" stop-opacity="0"/>
<stop offset="0.515625" stop-color="#E30000"/>
</linearGradient>
<linearGradient id="paint7_linear" x1="247.25" y1="314.204" x2="247.25" y2="111.704" gradientUnits="userSpaceOnUse">
<stop stop-color="white" stop-opacity="0"/>
<stop offset="0.739583" stop-color="#8B0101"/>
</linearGradient>
<linearGradient id="paint8_linear" x1="247.25" y1="314.204" x2="247.25" y2="111.704" gradientUnits="userSpaceOnUse">
<stop offset="0.0104167" stop-color="#FFA1A1"/>
<stop offset="0.1875" stop-color="#FFCECE"/>
<stop offset="0.432292" stop-color="#FFB6B6"/>
<stop offset="0.640625" stop-color="#FFA1A1"/>
<stop offset="0.802083" stop-color="white"/>
<stop offset="0.932292" stop-color="#FF0606"/>
</linearGradient>
<linearGradient id="paint9_linear" x1="305.25" y1="112.204" x2="305.25" y2="314.704" gradientUnits="userSpaceOnUse">
<stop stop-color="#8B0101"/>
<stop offset="0.71875" stop-color="white" stop-opacity="0"/>
</linearGradient>
<linearGradient id="paint10_linear" x1="305.25" y1="112.204" x2="305.25" y2="314.704" gradientUnits="userSpaceOnUse">
<stop offset="0.0572917" stop-color="#8B0101"/>
<stop offset="1" stop-color="white" stop-opacity="0"/>
</linearGradient>
<linearGradient id="paint11_linear" x1="305.25" y1="112.204" x2="305.25" y2="314.704" gradientUnits="userSpaceOnUse">
<stop offset="0.161458" stop-color="white" stop-opacity="0"/>
<stop offset="0.869792" stop-color="#8B0101"/>
</linearGradient>
<linearGradient id="paint12_linear" x1="306.25" y1="112.704" x2="306.25" y2="314.704" gradientUnits="userSpaceOnUse">
<stop stop-color="#FF2727"/>
<stop offset="0.234375" stop-color="white"/>
<stop offset="0.322917" stop-color="#FFCECE"/>
<stop offset="0.645833" stop-color="#FF7373"/>
<stop offset="0.973958" stop-color="#9B0000"/>
</linearGradient>
<linearGradient id="paint13_linear" x1="324.343" y1="51.5022" x2="502.536" y2="107.181" gradientUnits="userSpaceOnUse">
<stop offset="0.265625" stop-color="white" stop-opacity="0"/>
<stop offset="0.630208" stop-color="#8B0101"/>
</linearGradient>
<linearGradient id="paint14_linear" x1="324.343" y1="51.5022" x2="502.536" y2="107.181" gradientUnits="userSpaceOnUse">
<stop stop-color="#8B0101"/>
<stop offset="1" stop-color="white" stop-opacity="0"/>
</linearGradient>
<linearGradient id="paint15_linear" x1="322.955" y1="55.8979" x2="501.161" y2="111.581" gradientUnits="userSpaceOnUse">
<stop stop-color="#FF5151"/>
<stop offset="0.177083" stop-color="#FFA1A1"/>
<stop offset="0.442708" stop-color="white"/>
<stop offset="0.666667" stop-color="#FF8F8F"/>
<stop offset="0.932292" stop-color="#FD3B3B"/>
</linearGradient>
</defs>
</svg>
